# Blender v2.81 (sub 16) OBJ File: 'DiceLowPoly.blend'
# www.blender.org
mtllib DiceLowPoly.mtl
o Dice_Mesh
v -0.564477 -0.508035 0.508035
v -0.556916 -0.536256 0.508035
v -0.536256 -0.556916 0.508035
v -0.508035 -0.564477 0.508035
v -0.508035 -0.556916 0.536256
v -0.508035 -0.536256 0.556916
v -0.508035 -0.508035 0.564477
v -0.536256 -0.508035 0.556916
v -0.556916 -0.508035 0.536256
v 0.508035 -0.564477 0.508035
v 0.536256 -0.556916 0.508035
v 0.556916 -0.536256 0.508035
v 0.564477 -0.508035 0.508035
v 0.556916 -0.508035 0.536256
v 0.536256 -0.508035 0.556916
v 0.508035 -0.508035 0.564477
v 0.508035 -0.536256 0.556916
v 0.508035 -0.556916 0.536256
v -0.508035 0.564477 0.508035
v -0.536256 0.556916 0.508035
v -0.556916 0.536256 0.508035
v -0.564477 0.508035 0.508035
v -0.556916 0.508035 0.536256
v -0.536256 0.508035 0.556916
v -0.508035 0.508035 0.564477
v -0.508035 0.536256 0.556916
v -0.508035 0.556916 0.536256
v 0.564477 0.508035 0.508035
v 0.556916 0.536256 0.508035
v 0.536256 0.556916 0.508035
v 0.508035 0.564477 0.508035
v 0.508035 0.556916 0.536256
v 0.508035 0.536256 0.556916
v 0.508035 0.508035 0.564477
v 0.536256 0.508035 0.556916
v 0.556916 0.508035 0.536256
v -0.508035 0.508035 -0.564477
v -0.536256 0.508035 -0.556916
v -0.556916 0.508035 -0.536256
v -0.564477 0.508035 -0.508035
v -0.556916 0.536256 -0.508035
v -0.536256 0.556916 -0.508035
v -0.508035 0.564477 -0.508035
v -0.508035 0.556916 -0.536256
v -0.508035 0.536256 -0.556916
v 0.564477 0.508035 -0.508035
v 0.556916 0.508035 -0.536256
v 0.536256 0.508035 -0.556916
v 0.508035 0.508035 -0.564477
v 0.508035 0.536256 -0.556916
v 0.508035 0.556916 -0.536256
v 0.508035 0.564477 -0.508035
v 0.536256 0.556916 -0.508035
v 0.556916 0.536256 -0.508035
v -0.508035 -0.564477 -0.508035
v -0.536256 -0.556916 -0.508035
v -0.556916 -0.536256 -0.508035
v -0.564477 -0.508035 -0.508035
v -0.556916 -0.508035 -0.536256
v -0.536256 -0.508035 -0.556916
v -0.508035 -0.508035 -0.564477
v -0.508035 -0.536256 -0.556916
v -0.508035 -0.556916 -0.536256
v 0.564477 -0.508035 -0.508035
v 0.556916 -0.536256 -0.508035
v 0.536256 -0.556916 -0.508035
v 0.508035 -0.564477 -0.508035
v 0.508035 -0.556916 -0.536256
v 0.508035 -0.536256 -0.556916
v 0.508035 -0.508035 -0.564477
v 0.536256 -0.508035 -0.556916
v 0.556916 -0.508035 -0.536256
v -0.550367 -0.534366 0.534366
v -0.534366 -0.550367 0.534366
v -0.534366 -0.534366 0.550367
v 0.534366 -0.550367 0.534366
v 0.550367 -0.534366 0.534366
v 0.534366 -0.534366 0.550367
v -0.534366 0.550367 0.534366
v -0.550367 0.534366 0.534366
v -0.534366 0.534366 0.550367
v 0.550367 0.534366 0.534366
v 0.534366 0.550367 0.534366
v 0.534366 0.534366 0.550367
v -0.534366 0.534366 -0.550367
v -0.550367 0.534366 -0.534366
v -0.534366 0.550367 -0.534366
v 0.550367 0.534366 -0.534366
v 0.534366 0.534366 -0.550367
v 0.534366 0.550367 -0.534366
v -0.534366 -0.550367 -0.534366
v -0.550367 -0.534366 -0.534366
v -0.534366 -0.534366 -0.550367
v 0.550367 -0.534366 -0.534366
v 0.534366 -0.550367 -0.534366
v 0.534366 -0.534366 -0.550367
vt 0.026330 0.566595
vt 0.318777 0.566595
vt 0.318777 0.859042
vt 0.026330 0.859042
vt 0.640922 0.142764
vt 0.640922 0.435211
vt 0.348475 0.435211
vt 0.348475 0.142764
vt 0.318376 0.433665
vt 0.025929 0.433665
vt 0.025929 0.141218
vt 0.318376 0.141218
vt 0.975544 0.141212
vt 0.975544 0.433659
vt 0.683098 0.433659
vt 0.683098 0.141212
vt 0.644273 0.562778
vt 0.644273 0.855224
vt 0.351826 0.855224
vt 0.351826 0.562778
vt 0.974588 0.563807
vt 0.974588 0.856254
vt 0.682141 0.856254
vt 0.682141 0.563807
vt 0.018207 0.859042
vt 0.018207 0.566595
vt 0.012261 0.859042
vt 0.012261 0.566595
vt 0.318376 0.133096
vt 0.025929 0.133096
vt 0.348475 0.134642
vt 0.640922 0.134642
vt 0.348476 0.128696
vt 0.640922 0.128696
vt 0.026330 0.867164
vt 0.318777 0.867164
vt 0.326499 0.141218
vt 0.326499 0.433665
vt 0.334407 0.142764
vt 0.340353 0.142764
vt 0.340353 0.435211
vt 0.334407 0.435211
vt 0.683098 0.133090
vt 0.975544 0.133090
vt 0.332845 0.859042
vt 0.326899 0.859042
vt 0.326899 0.566595
vt 0.332845 0.566595
vt 0.649045 0.142764
vt 0.649045 0.435211
vt 0.654991 0.142764
vt 0.654991 0.435211
vt 0.674975 0.141212
vt 0.674975 0.433659
vt 0.318376 0.441788
vt 0.025929 0.441788
vt 0.337758 0.562778
vt 0.343704 0.562778
vt 0.343704 0.855224
vt 0.337758 0.855224
vt 0.351826 0.554655
vt 0.644273 0.554655
vt 0.348475 0.449280
vt 0.348475 0.443334
vt 0.640922 0.443334
vt 0.640922 0.449280
vt 0.652396 0.562778
vt 0.652396 0.855224
vt 0.658342 0.562778
vt 0.658342 0.855224
vt 0.683098 0.441781
vt 0.975544 0.441781
vt 0.017807 0.433665
vt 0.017807 0.141218
vt 0.668073 0.563807
vt 0.674019 0.563807
vt 0.674019 0.856254
vt 0.668073 0.856254
vt 0.682141 0.555684
vt 0.974588 0.555684
vt 0.351826 0.869293
vt 0.351826 0.863347
vt 0.644273 0.863347
vt 0.644273 0.869293
vt 0.982711 0.563807
vt 0.982711 0.856254
vt 0.988657 0.563807
vt 0.988657 0.856254
vt 0.983667 0.433659
vt 0.983667 0.141212
vt 0.026330 0.558472
vt 0.318777 0.558472
vt 0.682141 0.870323
vt 0.682141 0.864376
vt 0.974588 0.864376
vt 0.974588 0.870323
vt 0.325955 0.133640
vt 0.014146 0.866620
vt 0.018751 0.866620
vt 0.340897 0.130580
vt 0.340897 0.135186
vt 0.336292 0.135186
vt 0.326355 0.866620
vt 0.330960 0.866620
vt 0.675519 0.133634
vt 0.653106 0.135186
vt 0.648501 0.135186
vt 0.648501 0.130580
vt 0.344248 0.555199
vt 0.339642 0.555199
vt 0.325955 0.441244
vt 0.336292 0.442790
vt 0.340897 0.442790
vt 0.340897 0.447395
vt 0.675519 0.441237
vt 0.656457 0.555199
vt 0.651852 0.555199
vt 0.648501 0.447395
vt 0.648501 0.442790
vt 0.653106 0.442790
vt 0.674563 0.556229
vt 0.669958 0.556229
vt 0.018351 0.441244
vt 0.339642 0.862803
vt 0.344248 0.862803
vt 0.344248 0.867408
vt 0.983123 0.441237
vt 0.986772 0.556229
vt 0.982167 0.556229
vt 0.651852 0.867408
vt 0.651852 0.862803
vt 0.656457 0.862803
vt 0.018751 0.559016
vt 0.014146 0.559016
vt 0.018351 0.133640
vt 0.669958 0.863832
vt 0.674563 0.863832
vt 0.674563 0.868438
vt 0.983123 0.133634
vt 0.330960 0.559016
vt 0.326355 0.559017
vt 0.982167 0.868438
vt 0.982167 0.863832
vt 0.986772 0.863832
vn -0.0072 -0.9999 -0.0072
vn 0.0072 -0.9999 -0.0072
vn 0.0072 -0.9999 0.0072
vn -0.0072 -0.9999 0.0072
vn 0.0072 -0.0072 0.9999
vn 0.0072 0.0072 0.9999
vn -0.0072 0.0072 0.9999
vn -0.0072 -0.0072 0.9999
vn -0.9999 0.0072 0.0072
vn -0.9999 0.0072 -0.0072
vn -0.9999 -0.0072 -0.0072
vn -0.9999 -0.0072 0.0072
vn 0.9999 -0.0072 -0.0072
vn 0.9999 0.0072 -0.0072
vn 0.9999 0.0072 0.0072
vn 0.9999 -0.0072 0.0072
vn 0.0072 0.9999 0.0072
vn 0.0072 0.9999 -0.0072
vn -0.0072 0.9999 -0.0072
vn -0.0072 0.9999 0.0072
vn 0.0072 0.0072 -0.9999
vn 0.0072 -0.0072 -0.9999
vn -0.0072 -0.0072 -0.9999
vn -0.0072 0.0072 -0.9999
vn -0.4995 -0.8663 0.0058
vn -0.4995 -0.8663 -0.0058
vn -0.8663 -0.4995 0.0058
vn -0.8663 -0.4995 -0.0058
vn -0.0058 -0.4995 0.8663
vn 0.0058 -0.4995 0.8663
vn -0.0058 -0.8663 0.4995
vn 0.0058 -0.8663 0.4995
vn -0.8663 -0.0058 0.4995
vn -0.8663 0.0058 0.4995
vn -0.4995 -0.0058 0.8663
vn -0.4995 0.0058 0.8663
vn 0.8663 -0.4995 0.0058
vn 0.8663 -0.4995 -0.0058
vn 0.4995 -0.8663 0.0058
vn 0.4995 -0.8663 -0.0058
vn 0.4995 -0.0058 0.8663
vn 0.4995 0.0058 0.8663
vn 0.8663 -0.0058 0.4995
vn 0.8663 0.0058 0.4995
vn -0.8663 0.4995 0.0058
vn -0.8663 0.4995 -0.0058
vn -0.4995 0.8663 0.0058
vn -0.4995 0.8663 -0.0058
vn -0.0058 0.8663 0.4995
vn 0.0058 0.8663 0.4995
vn -0.0058 0.4995 0.8663
vn 0.0058 0.4995 0.8663
vn 0.4995 0.8663 0.0058
vn 0.4995 0.8663 -0.0058
vn 0.8663 0.4995 0.0058
vn 0.8663 0.4995 -0.0058
vn -0.8663 0.0058 -0.4995
vn -0.8663 -0.0058 -0.4995
vn -0.4995 0.0058 -0.8663
vn -0.4995 -0.0058 -0.8663
vn -0.0058 0.4995 -0.8663
vn 0.0058 0.4995 -0.8663
vn -0.0058 0.8663 -0.4995
vn 0.0058 0.8663 -0.4995
vn 0.4995 0.0058 -0.8663
vn 0.4995 -0.0058 -0.8663
vn 0.8663 0.0058 -0.4995
vn 0.8663 -0.0058 -0.4995
vn -0.0058 -0.8663 -0.4995
vn 0.0058 -0.8663 -0.4995
vn -0.0058 -0.4995 -0.8663
vn 0.0058 -0.4995 -0.8663
vn -0.8083 -0.4163 0.4163
vn -0.4163 -0.8083 0.4163
vn -0.4163 -0.4163 0.8083
vn 0.4163 -0.8083 0.4163
vn 0.8083 -0.4163 0.4163
vn 0.4163 -0.4163 0.8083
vn -0.4163 0.8083 0.4163
vn -0.8083 0.4163 0.4163
vn -0.4163 0.4163 0.8083
vn 0.8083 0.4163 0.4163
vn 0.4163 0.8083 0.4163
vn 0.4163 0.4163 0.8083
vn -0.4163 0.4163 -0.8083
vn -0.8083 0.4163 -0.4163
vn -0.4163 0.8083 -0.4163
vn 0.8083 0.4163 -0.4163
vn 0.4163 0.4163 -0.8083
vn 0.4163 0.8083 -0.4163
vn -0.4163 -0.8083 -0.4163
vn -0.8083 -0.4163 -0.4163
vn -0.4163 -0.4163 -0.8083
vn 0.8083 -0.4163 -0.4163
vn 0.4163 -0.8083 -0.4163
vn 0.4163 -0.4163 -0.8083
usemtl Dice_Shader
s 1
f 55/1/1 67/2/2 10/3/3 4/4/4
f 16/5/5 34/6/6 25/7/7 7/8/8
f 22/9/9 40/10/10 58/11/11 1/12/12
f 64/13/13 46/14/14 28/15/15 13/16/16
f 31/17/17 52/18/18 43/19/19 19/20/20
f 49/21/21 70/22/22 61/23/23 37/24/24
f 4/4/4 3/25/25 56/26/26 55/1/1
f 3/25/25 2/27/27 57/28/28 56/26/26
f 2/29/27 1/12/12 58/11/11 57/30/28
f 7/8/8 6/31/29 17/32/30 16/5/5
f 6/31/29 5/33/31 18/34/32 17/32/30
f 5/35/31 4/4/4 10/3/3 18/36/32
f 1/12/12 9/37/33 23/38/34 22/9/9
f 9/39/33 8/40/35 24/41/36 23/42/34
f 8/40/35 7/8/8 25/7/7 24/41/36
f 13/16/16 12/43/37 65/44/38 64/13/13
f 12/45/37 11/46/39 66/47/40 65/48/38
f 11/46/39 10/3/3 67/2/2 66/47/40
f 16/5/5 15/49/41 35/50/42 34/6/6
f 15/49/41 14/51/43 36/52/44 35/50/42
f 14/53/43 13/16/16 28/15/15 36/54/44
f 22/9/9 21/55/45 41/56/46 40/10/10
f 21/57/45 20/58/47 42/59/48 41/60/46
f 20/58/47 19/20/20 43/19/19 42/59/48
f 19/20/20 27/61/49 32/62/50 31/17/17
f 27/63/49 26/64/51 33/65/52 32/66/50
f 26/64/51 25/7/7 34/6/6 33/65/52
f 31/17/17 30/67/53 53/68/54 52/18/18
f 30/67/53 29/69/55 54/70/56 53/68/54
f 29/71/55 28/15/15 46/14/14 54/72/56
f 40/10/10 39/73/57 59/74/58 58/11/11
f 39/75/57 38/76/59 60/77/60 59/78/58
f 38/76/59 37/24/24 61/23/23 60/77/60
f 37/24/24 45/79/61 50/80/62 49/21/21
f 45/81/61 44/82/63 51/83/64 50/84/62
f 44/82/63 43/19/19 52/18/18 51/83/64
f 49/21/21 48/85/65 71/86/66 70/22/22
f 48/85/65 47/87/67 72/88/68 71/86/66
f 47/89/67 46/14/14 64/13/13 72/90/68
f 55/1/1 63/91/69 68/92/70 67/2/2
f 63/93/69 62/94/71 69/95/72 68/96/70
f 62/94/71 61/23/23 70/22/22 69/95/72
f 9/37/33 1/12/12 2/29/27 73/97/73
f 73/98/73 2/27/27 3/25/25 74/99/74
f 3/25/25 4/4/4 5/35/31 74/99/74
f 74/100/74 5/33/31 6/31/29 75/101/75
f 6/31/29 7/8/8 8/40/35 75/101/75
f 75/101/75 8/40/35 9/39/33 73/102/73
f 73/102/73 74/100/74 75/101/75
f 18/36/32 10/3/3 11/46/39 76/103/76
f 76/103/76 11/46/39 12/45/37 77/104/77
f 12/43/37 13/16/16 14/53/43 77/105/77
f 77/106/77 14/51/43 15/49/41 78/107/78
f 15/49/41 16/5/5 17/32/30 78/107/78
f 78/107/78 17/32/30 18/34/32 76/108/76
f 76/108/76 77/106/77 78/107/78
f 27/61/49 19/20/20 20/58/47 79/109/79
f 79/109/79 20/58/47 21/57/45 80/110/80
f 21/55/45 22/9/9 23/38/34 80/111/80
f 80/112/80 23/42/34 24/41/36 81/113/81
f 24/41/36 25/7/7 26/64/51 81/113/81
f 81/113/81 26/64/51 27/63/49 79/114/79
f 79/114/79 80/112/80 81/113/81
f 36/54/44 28/15/15 29/71/55 82/115/82
f 82/116/82 29/69/55 30/67/53 83/117/83
f 30/67/53 31/17/17 32/62/50 83/117/83
f 83/118/83 32/66/50 33/65/52 84/119/84
f 33/65/52 34/6/6 35/50/42 84/119/84
f 84/119/84 35/50/42 36/52/44 82/120/82
f 82/120/82 83/118/83 84/119/84
f 45/79/61 37/24/24 38/76/59 85/121/85
f 85/121/85 38/76/59 39/75/57 86/122/86
f 39/73/57 40/10/10 41/56/46 86/123/86
f 86/124/86 41/60/46 42/59/48 87/125/87
f 42/59/48 43/19/19 44/82/63 87/125/87
f 87/125/87 44/82/63 45/81/61 85/126/85
f 85/126/85 86/124/86 87/125/87
f 54/72/56 46/14/14 47/89/67 88/127/88
f 88/128/88 47/87/67 48/85/65 89/129/89
f 48/85/65 49/21/21 50/80/62 89/129/89
f 89/130/89 50/84/62 51/83/64 90/131/90
f 51/83/64 52/18/18 53/68/54 90/131/90
f 90/131/90 53/68/54 54/70/56 88/132/88
f 88/132/88 89/130/89 90/131/90
f 63/91/69 55/1/1 56/26/26 91/133/91
f 91/133/91 56/26/26 57/28/28 92/134/92
f 57/30/28 58/11/11 59/74/58 92/135/92
f 92/136/92 59/78/58 60/77/60 93/137/93
f 60/77/60 61/23/23 62/94/71 93/137/93
f 93/137/93 62/94/71 63/93/69 91/138/91
f 91/138/91 92/136/92 93/137/93
f 72/90/68 64/13/13 65/44/38 94/139/94
f 94/140/94 65/48/38 66/47/40 95/141/95
f 66/47/40 67/2/2 68/92/70 95/141/95
f 95/142/95 68/96/70 69/95/72 96/143/96
f 69/95/72 70/22/22 71/86/66 96/143/96
f 96/143/96 71/86/66 72/88/68 94/144/94
f 94/144/94 95/142/95 96/143/96
